<svg width="119" height="31" viewBox="0 0 119 31" fill="none" xmlns="http://www.w3.org/2000/svg">
<path d="M46.58 19H41.84V17.72H43.48V7.28H41.84V6H46.58V7.28H44.96V17.72H46.58V19ZM61.5053 7.28H59.8853V19H58.9453L51.4053 8.76H51.3253V17.72H53.3853V19H48.4253V17.72H49.9253V7.28H48.2053V6H51.0053L58.4053 16.02H58.4853V7.28H56.5253V6H61.5053V7.28ZM72.7309 19H63.0509V17.72H64.6909V7.28H63.0509V6H72.5509L72.9509 9.68L71.6709 9.82L71.2709 7.28H66.1509V11.76H72.2909V13.04H66.1509V17.72H71.4509L71.8509 15.18L73.1109 15.32L72.7309 19ZM86.1088 19H83.5088L80.7088 13.56H77.9288V17.72H79.6688V19H74.8088V17.72H76.4488V7.28H74.8088V6H80.4288C82.0421 6 83.1954 6.35333 83.8888 7.06C84.5821 7.75333 84.9288 8.62667 84.9288 9.68C84.9288 10.52 84.6954 11.2733 84.2288 11.94C83.7621 12.5933 83.0688 13.04 82.1488 13.28L84.4688 17.72H86.1088V19ZM83.3888 9.74C83.3888 8.88667 83.1421 8.26667 82.6488 7.88C82.1554 7.48 81.3554 7.28 80.2488 7.28H77.9288V12.34H80.2888C81.3954 12.34 82.1888 12.1133 82.6688 11.66C83.1488 11.1933 83.3888 10.5533 83.3888 9.74ZM98.1558 9.96L96.8558 10.06L96.4558 7.28H93.0958V17.72H95.3958V19H89.3958V17.72H91.6358V7.28H88.2758L87.8758 10.06L86.5958 9.96L86.9758 6H97.7558L98.1558 9.96ZM104.158 19H99.4181V17.72H101.058V7.28H99.4181V6H104.158V7.28H102.538V17.72H104.158V19ZM118.123 19H113.503V17.72H115.243L114.303 15.22H108.743L107.743 17.72H109.623V19H105.043V17.72H106.263L110.523 7.28H108.443V6H112.143L116.803 17.72H118.123V19ZM113.883 14.08L111.643 8.12H111.523L109.183 14.08H113.883Z" fill="white"/>
<path d="M41.25 28.36H41.98L42.53 23.14H41.7L41.77 22.5H43.11L46.2 27.52H46.23L46.68 23.14H45.74L45.8 22.5H48.22L48.16 23.14H47.36L46.75 29H46.3L43.16 23.88H43.13L42.65 28.36H43.67L43.61 29H41.18L41.25 28.36ZM50.0831 28.53C50.3898 28.53 50.6398 28.45 50.8331 28.29C51.0331 28.1233 51.1865 27.9033 51.2931 27.63L51.8431 27.76C51.7498 28.1333 51.5431 28.45 51.2231 28.71C50.9031 28.97 50.4865 29.1 49.9731 29.1C49.4331 29.1 49.0131 28.9367 48.7131 28.61C48.4131 28.2767 48.2631 27.7967 48.2631 27.17C48.2631 26.41 48.4665 25.77 48.8731 25.25C49.2865 24.7233 49.8331 24.46 50.5131 24.46C50.9065 24.46 51.2431 24.56 51.5231 24.76C51.8031 24.9533 51.9431 25.2233 51.9431 25.57C51.9431 25.8967 51.8198 26.1767 51.5731 26.41C51.3331 26.6433 50.9265 26.82 50.3531 26.94C50.1465 26.98 49.9265 27.0233 49.6931 27.07C49.4665 27.11 49.2331 27.1467 48.9931 27.18C48.9998 27.6 49.0831 27.93 49.2431 28.17C49.4098 28.41 49.6898 28.53 50.0831 28.53ZM50.0631 26.52C50.5698 26.4067 50.8865 26.27 51.0131 26.11C51.1465 25.95 51.2131 25.79 51.2131 25.63C51.2131 25.4033 51.1431 25.2433 51.0031 25.15C50.8631 25.0567 50.6765 25.01 50.4431 25.01C49.9765 25.01 49.6331 25.1833 49.4131 25.53C49.1998 25.8767 49.0665 26.26 49.0131 26.68C49.4665 26.62 49.8165 26.5667 50.0631 26.52ZM57.1202 28.18H57.1602C57.9269 27.2533 58.3102 26.3467 58.3102 25.46C58.3102 25.12 58.2569 24.8167 58.1502 24.55H58.9302C59.0236 25.01 59.0302 25.4667 58.9502 25.92C58.8769 26.3733 58.7002 26.8267 58.4202 27.28C58.2736 27.54 58.0702 27.83 57.8102 28.15C57.5502 28.47 57.2902 28.7533 57.0302 29H56.6802L55.9202 25.65H55.8802L54.3102 29H53.9002L52.8902 25.12H52.3802L52.4302 24.74L52.6502 24.55H54.5402L54.4902 24.94L54.2802 25.12H53.6102L54.2602 27.92H54.3002L55.8502 24.55H56.3102L57.1202 28.18ZM61.1791 28.53C61.8991 28.53 62.2591 28.2733 62.2591 27.76C62.2591 27.4867 62.1491 27.3033 61.9291 27.21C61.7158 27.11 61.4358 27.0133 61.0891 26.92C60.7958 26.8467 60.5258 26.7367 60.2791 26.59C60.0391 26.4433 59.9191 26.1767 59.9191 25.79C59.9191 25.35 60.0791 25.02 60.3991 24.8C60.7191 24.5733 61.0891 24.46 61.5091 24.46C61.8091 24.46 62.0958 24.5 62.3691 24.58C62.6425 24.66 62.8691 24.7567 63.0491 24.87L63.0291 25.91L62.4791 25.98L62.4391 25.27C62.3125 25.2033 62.1791 25.1467 62.0391 25.1C61.9058 25.0533 61.7491 25.03 61.5691 25.03C60.9425 25.03 60.6291 25.26 60.6291 25.72C60.6291 25.92 60.7058 26.0667 60.8591 26.16C61.0125 26.2533 61.2525 26.3433 61.5791 26.43C61.8858 26.51 62.1925 26.6267 62.4991 26.78C62.8125 26.9333 62.9691 27.24 62.9691 27.7C62.9691 28.1333 62.8125 28.4767 62.4991 28.73C62.1858 28.9767 61.7791 29.1 61.2791 29.1C60.9725 29.1 60.6525 29.06 60.3191 28.98C59.9925 28.8933 59.7425 28.7867 59.5691 28.66L59.8091 27.65L60.3591 27.71L60.2591 28.33C60.5191 28.4633 60.8258 28.53 61.1791 28.53Z" fill="#2C2BE6"/>
<rect width="10" height="10" fill="#2C2BE6"/>
<rect y="20" width="10" height="10" rx="5" fill="#CDE2EA"/>
<rect x="20" width="10" height="10" rx="5" fill="#CDE2EA"/>
<rect x="20" y="20" width="10" height="10" fill="#2C2BE6"/>
</svg>
